<svg width="108" height="34" viewBox="0 0 108 34" fill="none" xmlns="http://www.w3.org/2000/svg">
<path d="M65.6575 7.68038H69.0061L63.7706 26.3237H60.5284L56.7546 12.2879L53.0605 26.3237H49.8183L44.5828 7.68038H47.9314L51.5457 21.5031L55.1866 7.68038H58.4289L62.0698 21.3166L65.6575 7.68038Z" fill="white"/>
<path d="M71.0811 26.3237V7.68038H74.2436V14.4985C75.094 13.4332 76.3165 12.6608 78.1768 12.6608C81.1799 12.6608 82.9074 14.392 82.9074 18.2804V26.3237H79.7448V18.7598C79.7448 16.3628 78.6552 15.6437 77.167 15.6437C75.5458 15.6437 74.2436 16.789 74.2436 19.0528V26.3237H71.0811Z" fill="white"/>
<path d="M87.7556 11.2226C86.7191 11.2226 85.8953 10.3703 85.8953 9.33165C85.8953 8.29295 86.7191 7.44068 87.7556 7.44068C88.7921 7.44068 89.6691 8.29295 89.6691 9.33165C89.6691 10.3703 88.7921 11.2226 87.7556 11.2226ZM86.2142 26.3237V13.0337H89.4033V26.3237H86.2142Z" fill="white"/>
<path d="M92.7 26.3237V13.0337H95.331L95.7828 14.5784C96.3409 13.6196 97.457 12.6608 99.1313 12.6608C100.194 12.6608 100.992 12.9804 101.417 13.3L100.274 16.0965C100.008 15.8834 99.4502 15.6437 98.6795 15.6437C97.1381 15.6437 95.8891 16.8689 95.8891 19.0794V26.3237H92.7Z" fill="white"/>
<path d="M103.185 26.3237V7.68038H106.374V26.3237H103.185Z" fill="white"/>
<g clip-path="url(#clip0_2701_906)">
<path d="M33.613 12.6048C33.4148 11.7551 33.1287 10.9382 32.7616 10.1679C31.0486 6.55646 27.5984 3.93297 23.495 3.37684C22.9848 3.30776 22.4661 3.26976 21.9387 3.26631H21.8629C19.2778 3.26631 16.884 4.08151 14.9211 5.46838C14.1817 5.98997 13.5027 6.59446 12.8978 7.26631C12.8892 7.27667 12.8789 7.28703 12.8702 7.29567C12.7996 7.36648 12.7031 7.40966 12.5962 7.40966C12.3825 7.40966 12.2085 7.23522 12.2085 7.02106C12.2085 6.98651 12.2085 6.95197 12.2153 6.91916C12.2153 6.91743 12.2153 6.9157 12.2153 6.9157C12.2171 6.90534 12.2188 6.89843 12.2222 6.8898C12.2222 6.88807 12.224 6.88462 12.224 6.88289C12.2257 6.87771 12.2291 6.8708 12.2326 6.86562C12.7117 5.35266 13.42 3.93988 14.3144 2.66873C14.3179 2.66354 14.3231 2.65664 14.3265 2.64973C14.33 2.64455 14.3334 2.63936 14.3351 2.63418C14.3679 2.58064 14.3885 2.51674 14.3903 2.44938C14.392 2.44247 14.392 2.43556 14.392 2.42866C14.392 2.37512 14.3817 2.32503 14.361 2.2784C14.361 2.27667 14.3592 2.27494 14.3592 2.27494C14.3007 2.13677 14.1645 2.04006 14.0042 2.04006C13.9749 2.04006 13.9508 2.04178 13.9232 2.04869C10.5023 2.82935 7.57253 4.90189 5.67163 7.72572C4.20502 9.90361 3.3485 12.5271 3.3485 15.3509C3.3485 16.2939 3.44328 17.2128 3.62424 18.1005C3.62596 18.1091 3.62768 18.1195 3.63113 18.1281C3.64837 18.2145 3.66732 18.3026 3.68628 18.3872C3.70007 18.4477 3.71385 18.5081 3.72937 18.5686C3.73281 18.5806 3.73626 18.5927 3.73971 18.6048C4.42045 21.2473 6.79011 23.2093 9.63715 23.2093C10.5643 23.2093 11.4433 23.0038 12.2291 22.6342C14.3127 21.6549 15.7552 19.5357 15.7552 17.0781C15.7552 15.9278 15.981 14.8311 16.3929 13.8293C17.6682 10.7188 20.722 8.52883 24.286 8.52883C26.3282 8.52883 28.2033 9.24731 29.6716 10.4477C29.8956 10.6307 30.1093 10.8242 30.3144 11.0314C31.8603 12.5755 32.8168 14.7154 32.8168 17.0781C32.8168 17.5064 32.7858 17.9278 32.7237 18.3388V18.3406C32.722 18.3492 32.722 18.3596 32.7203 18.3699C32.7185 18.3803 32.7186 18.3907 32.7186 18.401C32.7186 18.6238 32.8961 18.8052 33.1201 18.8052C33.3045 18.8052 33.4648 18.6808 33.5113 18.5081C33.5148 18.5047 33.5148 18.4995 33.5165 18.496C33.5165 18.4943 33.5182 18.4908 33.5165 18.4891C33.7853 17.4891 33.9266 16.439 33.9266 15.3561C33.9266 14.4097 33.8181 13.4891 33.613 12.6048ZM9.63715 18.8052C8.68584 18.8052 7.91376 18.0314 7.91376 17.0781C7.91376 16.123 8.68584 15.3509 9.63715 15.3509C10.5885 15.3509 11.3605 16.123 11.3605 17.0781C11.3605 18.0314 10.5885 18.8052 9.63715 18.8052Z" fill="#E6C82E"/>
<path d="M30.3024 16.0556C30.3007 16.047 30.299 16.0366 30.2955 16.028C30.2783 15.9416 30.2593 15.8535 30.2404 15.7689C30.2266 15.7085 30.2128 15.648 30.1973 15.5876C30.1938 15.5755 30.1904 15.5634 30.1869 15.5513C29.5062 12.9088 27.1365 10.9468 24.2895 10.9468C23.3623 10.9468 22.4834 11.1523 21.6975 11.5219C19.6139 12.5012 18.1715 14.6204 18.1715 17.0781C18.1715 18.2266 17.9457 19.3233 17.5355 20.3233C16.2602 23.4356 13.2064 25.6273 9.64066 25.6273C7.59844 25.6273 5.72339 24.9088 4.25506 23.7085C4.03102 23.5271 3.81731 23.3337 3.61395 23.1264C3.61395 23.1281 3.61223 23.1247 3.61223 23.1247C2.06635 21.5806 1.10986 19.4407 1.10986 17.0781C1.10986 16.6497 1.14089 16.2283 1.20293 15.8173V15.8155C1.20465 15.8069 1.20465 15.7965 1.20637 15.7862C1.2081 15.7758 1.2081 15.7654 1.2081 15.7551C1.2081 15.5323 1.03059 15.3509 0.806548 15.3509C0.622145 15.3509 0.461869 15.4753 0.415338 15.648C0.411891 15.6515 0.411891 15.6566 0.410167 15.6601C0.410167 15.6618 0.408444 15.6653 0.410167 15.667C0.141318 16.667 0 17.7171 0 18.8C0 19.7464 0.108574 20.667 0.313657 21.5513C0.313657 21.553 0.315381 21.5565 0.315381 21.5582C0.513571 22.4062 0.799654 23.2197 1.16501 23.9882V23.99C2.87979 27.5996 6.3283 30.2231 10.4317 30.7793C10.9418 30.8483 11.4606 30.8863 11.9879 30.8898H12.0637C14.6488 30.8898 17.0444 30.0746 19.0073 28.6877C19.7466 28.1644 20.4239 27.5616 21.0288 26.8898C21.0375 26.8794 21.0478 26.8691 21.0564 26.8604C21.1271 26.7896 21.2236 26.7464 21.3304 26.7464C21.5441 26.7464 21.7182 26.9209 21.7182 27.1351C21.7182 27.1696 21.7182 27.2041 21.7113 27.2369C21.7113 27.2387 21.7113 27.2404 21.7113 27.2404C21.7096 27.2508 21.7079 27.2577 21.7044 27.2663C21.7044 27.268 21.7027 27.2715 21.7027 27.2732C21.701 27.2784 21.6975 27.2853 21.6941 27.2905C21.215 28.8034 20.5066 30.2162 19.6122 31.4874C19.6088 31.4926 19.6036 31.4995 19.6001 31.5064C19.5967 31.5116 19.5932 31.5167 19.5915 31.5219C19.5588 31.5737 19.5398 31.6342 19.5364 31.6998C19.5347 31.7085 19.5347 31.7188 19.5347 31.7275C19.5347 31.7844 19.5467 31.838 19.5691 31.8863C19.6294 32.0228 19.7639 32.1161 19.9224 32.1161C19.9517 32.1161 19.9758 32.1143 20.0034 32.1074C23.4261 31.325 26.3576 29.2508 28.2585 26.4252C28.2619 26.42 28.2636 26.4166 28.2671 26.4148C29.7251 24.2404 30.5782 21.6221 30.5782 18.8052C30.5782 17.8622 30.4834 16.9433 30.3024 16.0556ZM24.2705 15.3509C25.2236 15.3509 25.9939 16.123 25.9939 17.0781C25.9939 18.0314 25.2236 18.8052 24.2705 18.8052C23.3192 18.8052 22.5471 18.0314 22.5471 17.0781C22.5471 16.123 23.3192 15.3509 24.2705 15.3509Z" fill="#E6C82E"/>
</g>
<defs>
<clipPath id="clip0_2701_906">
<rect width="33.9267" height="34" fill="white"/>
</clipPath>
</defs>
</svg>
